<svg id="download" xmlns="http://www.w3.org/2000/svg" width="27.708" height="30" viewBox="0 0 27.708 30">
  <g id="Group_22" data-name="Group 22">
    <path id="Path_22" data-name="Path 22" d="M154.679,12.56a.859.859,0,0,0,0,1.219l4.57,4.57a.867.867,0,0,0,.606.255.841.841,0,0,0,.606-.255l4.57-4.57a.862.862,0,0,0-1.219-1.219l-3.1,3.1V.862a.862.862,0,0,0-1.723,0V15.655l-3.1-3.1A.859.859,0,0,0,154.679,12.56Z" transform="translate(-146.001)" fill="#fff"/>
    <path id="Path_23" data-name="Path 23" d="M45.976,137.846l-2.944-10.574a.853.853,0,0,0-.463-.541l-.081-.037a.867.867,0,0,0-.351-.075h-5.3a.84.84,0,1,0,0,1.679h4.735l2.486,8.945H37.477a.839.839,0,0,0-.846.84v.759a2.022,2.022,0,0,1-2.029,2.015H29.442a2.022,2.022,0,0,1-2.029-2.015v-.759a.839.839,0,0,0-.846-.84H20.248l2.5-8.963h4.735a.84.84,0,1,0,0-1.679H22.171a.867.867,0,0,0-.351.075l-.081.037a.836.836,0,0,0-.463.541l-2.944,10.574a.919.919,0,0,0-.031.224v4.41a6.087,6.087,0,0,0,6.1,6.059H39.908a6.087,6.087,0,0,0,6.1-6.059V138.07A.646.646,0,0,0,45.976,137.846Zm-1.66,4.615a4.4,4.4,0,0,1-4.409,4.379H24.4a4.4,4.4,0,0,1-4.409-4.379v-3.539h5.743a3.711,3.711,0,0,0,3.72,3.608h5.161a3.711,3.711,0,0,0,3.72-3.608h5.994v3.539Z" transform="translate(-18.3 -118.52)" fill="#fff"/>
  </g>
</svg>
